<svg width="32" height="32" viewBox="0 0 32 32" fill="none" xmlns="http://www.w3.org/2000/svg">
<path d="M8.59288 16.7407V10.8148H6.37066C5.78129 10.8148 5.21606 11.0489 4.79931 11.4657C4.38256 11.8824 4.14844 12.4477 4.14844 13.037V26.3704C4.14954 26.5079 4.18893 26.6425 4.2622 26.7589C4.33546 26.8754 4.43971 26.9691 4.56325 27.0296C4.68227 27.0838 4.8135 27.1054 4.9436 27.0924C5.07371 27.0794 5.19805 27.0322 5.30399 26.9556L9.11881 24.1482H19.0744C19.3551 24.1565 19.6346 24.107 19.8954 24.0029C20.1563 23.8988 20.393 23.7423 20.5909 23.543C20.7888 23.3437 20.9437 23.1059 21.046 22.8443C21.1483 22.5827 21.1957 22.3029 21.1855 22.0222V21.1852H13.0373C11.8586 21.1852 10.7281 20.7169 9.89463 19.8834C9.06113 19.0499 8.59288 17.9195 8.59288 16.7407Z" fill="#D7D7D7"/>
<path d="M25.6302 5.62964H13.0377C12.4483 5.62964 11.8831 5.86377 11.4663 6.28051C11.0496 6.69726 10.8154 7.26249 10.8154 7.85186V16.7407C10.8154 17.3301 11.0496 17.8954 11.4663 18.3121C11.8831 18.7288 12.4483 18.963 13.0377 18.963H23.0747L26.6154 21.7111C26.7207 21.7889 26.8447 21.8375 26.9748 21.8518C27.1049 21.8661 27.2365 21.8457 27.3562 21.7926C27.4822 21.7326 27.5887 21.6381 27.6634 21.5202C27.7381 21.4022 27.778 21.2656 27.7784 21.1259V7.85186C27.7787 7.2751 27.5548 6.72081 27.1539 6.30613C26.7531 5.89145 26.2067 5.64886 25.6302 5.62964Z" fill="#D7D7D7"/>
</svg>
