<svg width="20" height="20" viewBox="0 0 20 20" fill="none" xmlns="http://www.w3.org/2000/svg">
<path d="M1.66699 15.8333C1.66699 17.25 2.75033 18.3333 4.16699 18.3333H15.8337C17.2503 18.3333 18.3337 17.25 18.3337 15.8333V9.16663H1.66699V15.8333ZM15.8337 3.33329H14.167V2.49996C14.167 1.99996 13.8337 1.66663 13.3337 1.66663C12.8337 1.66663 12.5003 1.99996 12.5003 2.49996V3.33329H7.50033V2.49996C7.50033 1.99996 7.16699 1.66663 6.66699 1.66663C6.16699 1.66663 5.83366 1.99996 5.83366 2.49996V3.33329H4.16699C2.75033 3.33329 1.66699 4.41663 1.66699 5.83329V7.49996H18.3337V5.83329C18.3337 4.41663 17.2503 3.33329 15.8337 3.33329Z" fill="white"/>
</svg>
