<svg width="16" height="16" viewBox="0 0 16 16" fill="none" xmlns="http://www.w3.org/2000/svg">
<path d="M12.8373 2.69562C12.9027 2.66747 12.975 2.65959 13.0449 2.67298C13.1148 2.68638 13.179 2.72044 13.2294 2.77076C13.2797 2.82108 13.3137 2.88535 13.3271 2.95524C13.3405 3.02513 13.3326 3.09744 13.3045 3.1628L9.03808 13.1178C9.00968 13.1841 8.96179 13.2401 8.90077 13.2786C8.83976 13.317 8.76849 13.336 8.69644 13.333C8.62439 13.33 8.55496 13.3051 8.49736 13.2617C8.43976 13.2183 8.39671 13.1585 8.37394 13.09L7.00797 8.99215L2.91008 7.62689C2.84143 7.60426 2.78131 7.56123 2.73774 7.50355C2.69417 7.44587 2.66921 7.37629 2.6662 7.30406C2.66319 7.23184 2.68226 7.16042 2.72088 7.09931C2.75949 7.0382 2.81582 6.99032 2.88234 6.96204L12.8373 2.69562Z" fill="#E6E6E6"/>
</svg>
