<svg width="16" height="16" viewBox="0 0 16 16" fill="none" xmlns="http://www.w3.org/2000/svg">
<path d="M10.7298 13.79C11.0198 14.07 11.4798 14.07 11.7698 13.79L14.5198 11.14C14.5942 11.0726 14.6542 10.9909 14.6964 10.8998C14.7386 10.8087 14.7621 10.7101 14.7655 10.6098C14.7689 10.5095 14.7521 10.4095 14.7162 10.3158C14.6802 10.2221 14.6258 10.1366 14.5562 10.0643C14.4866 9.99196 14.4031 9.93437 14.3109 9.8949C14.2186 9.85543 14.1193 9.83489 14.0189 9.8345C13.9185 9.8341 13.8191 9.85385 13.7265 9.89259C13.6339 9.93132 13.55 9.98825 13.4798 10.06L11.9998 11.486V2.75C11.9998 2.55109 11.9208 2.36032 11.7802 2.21967C11.6395 2.07902 11.4488 2 11.2498 2C11.0509 2 10.8602 2.07902 10.7195 2.21967C10.5789 2.36032 10.4998 2.55109 10.4998 2.75V11.486L9.01985 10.06C8.94965 9.98825 8.86577 9.93132 8.77318 9.89259C8.68058 9.85385 8.58115 9.8341 8.48077 9.8345C8.3804 9.83489 8.28113 9.85543 8.18884 9.8949C8.09655 9.93437 8.01312 9.99196 7.9435 10.0643C7.87388 10.1366 7.81947 10.2221 7.78352 10.3158C7.74756 10.4095 7.73078 10.5095 7.73417 10.6098C7.73756 10.7101 7.76105 10.8087 7.80325 10.8998C7.84545 10.9909 7.9055 11.0726 7.97985 11.14L10.7298 13.79ZM5.27985 2.22C5.13922 2.07955 4.9486 2.00066 4.74985 2.00066C4.5511 2.00066 4.36047 2.07955 4.21985 2.22L1.46985 4.97C1.33737 5.11217 1.26524 5.30022 1.26867 5.49452C1.2721 5.68882 1.35081 5.87421 1.48822 6.01162C1.62564 6.14903 1.81102 6.22775 2.00532 6.23117C2.19963 6.2346 2.38767 6.16248 2.52985 6.03L3.99985 4.56V13.25C3.99985 13.4489 4.07886 13.6397 4.21952 13.7803C4.36017 13.921 4.55093 14 4.74985 14C4.94876 14 5.13952 13.921 5.28018 13.7803C5.42083 13.6397 5.49985 13.4489 5.49985 13.25V4.56L6.96985 6.03C7.11202 6.16248 7.30007 6.2346 7.49437 6.23117C7.68867 6.22775 7.87406 6.14903 8.01147 6.01162C8.14888 5.87421 8.22759 5.68882 8.23102 5.49452C8.23445 5.30022 8.16233 5.11217 8.02985 4.97L5.27985 2.22Z" fill="white"/>
</svg>
