<svg fill="none" height="28" viewBox="0 0 30 28" width="30" xmlns="http://www.w3.org/2000/svg">
    <path
        d="M28.5782 13.7812L15.7063 0.918737C15.6137 0.825874 15.5036 0.752201 15.3824 0.701934C15.2612 0.651667 15.1313 0.625793 15.0001 0.625793C14.8689 0.625793 14.739 0.651667 14.6178 0.701934C14.4966 0.752201 14.3865 0.825874 14.2938 0.918737L1.42197 13.7812C1.04697 14.1562 0.834473 14.6656 0.834473 15.1969C0.834473 16.3 1.73135 17.1969 2.83447 17.1969H4.19072V26.375C4.19072 26.9281 4.6376 27.375 5.19072 27.375H13.0001V20.375H16.5001V27.375H24.8095C25.3626 27.375 25.8095 26.9281 25.8095 26.375V17.1969H27.1657C27.697 17.1969 28.2063 16.9875 28.5813 16.6094C29.3595 15.8281 29.3595 14.5625 28.5782 13.7812Z"
        fill="#FF7832" />
</svg>
