<svg width="16" height="16" viewBox="0 0 16 16" fill="none" xmlns="http://www.w3.org/2000/svg">
<path d="M9.02664 12C8.7111 12.0004 8.40505 11.8921 8.15997 11.6934L4.75997 8.88671C4.62664 8.78057 4.51897 8.64572 4.44496 8.49221C4.37095 8.33869 4.33252 8.17047 4.33252 8.00005C4.33252 7.82962 4.37095 7.6614 4.44496 7.50788C4.51897 7.35437 4.62664 7.21952 4.75997 7.11338L8.15997 4.30671C8.36466 4.14271 8.6113 4.0395 8.87179 4.00886C9.13228 3.97821 9.39614 4.02136 9.63331 4.13338C9.83942 4.22423 10.015 4.37249 10.1392 4.56046C10.2633 4.74842 10.3307 4.96814 10.3333 5.19338V10.8067C10.3307 11.0319 10.2633 11.2517 10.1392 11.4396C10.015 11.6276 9.83942 11.7759 9.63331 11.8667C9.44273 11.9534 9.23599 11.9988 9.02664 12Z" fill="white"/>
</svg>
