<svg width="24" height="24" viewBox="0 0 24 24" fill="none" xmlns="http://www.w3.org/2000/svg">
<path fill-rule="evenodd" clip-rule="evenodd" d="M12 1C11.7133 0.999962 11.43 1.06155 11.1692 1.18059C10.9084 1.29963 10.6763 1.47333 10.4885 1.68994C10.3008 1.90654 10.1617 2.16098 10.0809 2.43601C10.0001 2.71104 9.97929 3.00024 10.02 3.284C8.57063 3.71193 7.29857 4.59722 6.39379 5.80767C5.48902 7.01812 5.00008 8.48877 5 10V18H4C3.73478 18 3.48043 18.1054 3.29289 18.2929C3.10536 18.4804 3 18.7348 3 19C3 19.2652 3.10536 19.5196 3.29289 19.7071C3.48043 19.8946 3.73478 20 4 20H20C20.2652 20 20.5196 19.8946 20.7071 19.7071C20.8946 19.5196 21 19.2652 21 19C21 18.7348 20.8946 18.4804 20.7071 18.2929C20.5196 18.1054 20.2652 18 20 18H19V10C18.9999 8.48877 18.511 7.01812 17.6062 5.80767C16.7014 4.59722 15.4294 3.71193 13.98 3.284C14.0207 3.00024 13.9999 2.71104 13.9191 2.43601C13.8383 2.16098 13.6992 1.90654 13.5115 1.68994C13.3237 1.47333 13.0916 1.29963 12.8308 1.18059C12.57 1.06155 12.2867 0.999962 12 1ZM14 22C14 22.2652 13.8946 22.5196 13.7071 22.7071C13.5196 22.8946 13.2652 23 13 23H11C10.7348 23 10.4804 22.8946 10.2929 22.7071C10.1054 22.5196 10 22.2652 10 22C10 21.7348 10.1054 21.4804 10.2929 21.2929C10.4804 21.1054 10.7348 21 11 21H13C13.2652 21 13.5196 21.1054 13.7071 21.2929C13.8946 21.4804 14 21.7348 14 22Z" fill="white"/>
</svg>
