<svg width="16" height="16" viewBox="0 0 16 16" fill="none" xmlns="http://www.w3.org/2000/svg">
<path d="M8 7.33331C8.55228 7.33331 9 6.8856 9 6.33331C9 5.78103 8.55228 5.33331 8 5.33331C7.44772 5.33331 7 5.78103 7 6.33331C7 6.8856 7.44772 7.33331 8 7.33331Z" fill="#E6E6E6"/>
<path d="M7.99984 1.33331C6.59454 1.33324 5.24601 1.88782 4.24733 2.87651C3.24866 3.8652 2.68056 5.20809 2.6665 6.61331C2.6665 10.2666 7.3665 14.3333 7.5665 14.5066C7.68726 14.6099 7.84094 14.6667 7.99984 14.6667C8.15874 14.6667 8.31242 14.6099 8.43317 14.5066C8.6665 14.3333 13.3332 10.2666 13.3332 6.61331C13.3191 5.20809 12.751 3.8652 11.7523 2.87651C10.7537 1.88782 9.40513 1.33324 7.99984 1.33331ZM7.99984 8.66665C7.53835 8.66665 7.08722 8.5298 6.70351 8.27341C6.31979 8.01702 6.02072 7.6526 5.84412 7.22624C5.66751 6.79988 5.62131 6.33072 5.71134 5.8781C5.80137 5.42548 6.0236 5.00972 6.34992 4.6834C6.67624 4.35707 7.092 4.13485 7.54463 4.04481C7.99725 3.95478 8.4664 4.00099 8.89277 4.17759C9.31913 4.3542 9.68354 4.65327 9.93993 5.03698C10.1963 5.4207 10.3332 5.87182 10.3332 6.33331C10.3332 6.95215 10.0873 7.54564 9.64975 7.98323C9.21217 8.42081 8.61868 8.66665 7.99984 8.66665Z" fill="#E6E6E6"/>
</svg>
