<svg width="32" height="32" viewBox="0 0 32 32" fill="none" xmlns="http://www.w3.org/2000/svg">
<path fill-rule="evenodd" clip-rule="evenodd" d="M10.6667 9.33333C10.6667 7.91885 11.2286 6.56229 12.2288 5.5621C13.229 4.5619 14.5855 4 16 4C17.4145 4 18.771 4.5619 19.7712 5.5621C20.7714 6.56229 21.3333 7.91885 21.3333 9.33333C21.3333 10.7478 20.7714 12.1044 19.7712 13.1046C18.771 14.1048 17.4145 14.6667 16 14.6667C14.5855 14.6667 13.229 14.1048 12.2288 13.1046C11.2286 12.1044 10.6667 10.7478 10.6667 9.33333ZM10.6667 17.3333C8.89856 17.3333 7.20286 18.0357 5.95262 19.286C4.70238 20.5362 4 22.2319 4 24C4 25.0609 4.42143 26.0783 5.17157 26.8284C5.92172 27.5786 6.93913 28 8 28H24C25.0609 28 26.0783 27.5786 26.8284 26.8284C27.5786 26.0783 28 25.0609 28 24C28 22.2319 27.2976 20.5362 26.0474 19.286C24.7971 18.0357 23.1014 17.3333 21.3333 17.3333H10.6667Z" fill="#D7D7D7"/>
</svg>
