<svg width="16" height="16" viewBox="0 0 16 16" fill="none" xmlns="http://www.w3.org/2000/svg">
<path d="M6.97366 12C6.7643 11.9988 6.55757 11.9534 6.36699 11.8667C6.16088 11.7759 5.98527 11.6276 5.86114 11.4396C5.73701 11.2517 5.66961 11.0319 5.66699 10.8067V5.19338C5.66961 4.96814 5.73701 4.74842 5.86114 4.56046C5.98527 4.37249 6.16088 4.22423 6.36699 4.13338C6.60415 4.02136 6.86801 3.97821 7.1285 4.00886C7.38899 4.0395 7.63564 4.14271 7.84033 4.30671L11.2403 7.11338C11.3737 7.21952 11.4813 7.35437 11.5553 7.50788C11.6293 7.6614 11.6678 7.82962 11.6678 8.00005C11.6678 8.17047 11.6293 8.33869 11.5553 8.49221C11.4813 8.64572 11.3737 8.78057 11.2403 8.88671L7.84033 11.6934C7.59525 11.8921 7.2892 12.0004 6.97366 12Z" fill="white"/>
</svg>
