<svg width="24" height="24" viewBox="0 0 24 24" fill="none" xmlns="http://www.w3.org/2000/svg">
<path fill-rule="evenodd" clip-rule="evenodd" d="M18.3194 14.433C19.5664 12.8253 20.1541 10.803 19.9629 8.77745C19.7717 6.75187 18.8161 4.87521 17.2904 3.52924C15.7646 2.18327 13.7834 1.4691 11.7498 1.53203C9.71624 1.59496 7.783 2.43025 6.34341 3.86798C4.90256 5.30671 4.06454 7.2407 4.0001 9.27585C3.93567 11.311 4.64968 13.2941 5.99663 14.8211C7.34359 16.3481 9.2221 17.304 11.2494 17.4941C13.2767 17.6841 15.3001 17.094 16.9074 15.844L16.9504 15.889L21.1924 20.132C21.2853 20.2249 21.3956 20.2986 21.517 20.3489C21.6384 20.3992 21.7685 20.425 21.8999 20.425C22.0313 20.425 22.1614 20.3992 22.2828 20.3489C22.4042 20.2986 22.5145 20.2249 22.6074 20.132C22.7003 20.0391 22.774 19.9288 22.8243 19.8074C22.8746 19.686 22.9005 19.5559 22.9005 19.4245C22.9005 19.2931 22.8746 19.163 22.8243 19.0416C22.774 18.9202 22.7003 18.8099 22.6074 18.717L18.3644 14.475C18.3498 14.4606 18.3348 14.4466 18.3194 14.433ZM16.2434 5.28298C16.808 5.83846 17.257 6.50023 17.5646 7.23012C17.8722 7.96001 18.0322 8.74357 18.0354 9.5356C18.0386 10.3276 17.885 11.1125 17.5834 11.8448C17.2818 12.5772 16.8382 13.2426 16.2781 13.8027C15.718 14.3627 15.0526 14.8064 14.3203 15.108C13.5879 15.4096 12.8031 15.5632 12.011 15.56C11.219 15.5568 10.4354 15.3967 9.70554 15.0892C8.97565 14.7816 8.31389 14.3326 7.75841 13.768C6.64832 12.6397 6.02906 11.1184 6.03551 9.5356C6.04195 7.95278 6.67358 6.43663 7.79282 5.31739C8.91205 4.19816 10.4282 3.56653 12.011 3.56008C13.5938 3.55364 15.1151 4.1729 16.2434 5.28298Z" fill="#767676"/>
</svg>
