<svg width="24" height="24" viewBox="0 0 24 24" fill="none" xmlns="http://www.w3.org/2000/svg">
<path d="M12.0121 9.15474C11.3113 9.15474 10.6551 9.42661 10.1582 9.92349C9.66366 10.4204 9.38944 11.0766 9.38944 11.7774C9.38944 12.4782 9.66366 13.1344 10.1582 13.6313C10.6551 14.1258 11.3113 14.4001 12.0121 14.4001C12.7129 14.4001 13.3691 14.1258 13.866 13.6313C14.3605 13.1344 14.6348 12.4782 14.6348 11.7774C14.6348 11.0766 14.3605 10.4204 13.866 9.92349C13.6233 9.67893 13.3345 9.48504 13.0162 9.35307C12.6979 9.2211 12.3566 9.15368 12.0121 9.15474ZM21.6754 14.6743L20.1426 13.3641C20.2152 12.9188 20.2527 12.4641 20.2527 12.0118C20.2527 11.5594 20.2152 11.1024 20.1426 10.6594L21.6754 9.34927C21.7912 9.25014 21.874 9.11812 21.913 8.97075C21.9519 8.82338 21.9451 8.66765 21.8933 8.52427L21.8723 8.46333C21.4504 7.2837 20.8183 6.19026 20.0066 5.23599L19.9644 5.18677C19.8659 5.07087 19.7345 4.98756 19.5877 4.94782C19.4408 4.90807 19.2853 4.91375 19.1418 4.96411L17.2387 5.64146C16.5355 5.06489 15.7527 4.61021 14.9043 4.2938L14.5363 2.30396C14.5086 2.15405 14.4358 2.01615 14.3278 1.90856C14.2198 1.80097 14.0816 1.72879 13.9316 1.70161L13.8683 1.68989C12.6496 1.46958 11.3652 1.46958 10.1465 1.68989L10.0832 1.70161C9.93318 1.72879 9.79499 1.80097 9.68699 1.90856C9.57898 2.01615 9.50626 2.15405 9.4785 2.30396L9.10819 4.30317C8.26779 4.6221 7.4849 5.07569 6.79022 5.64614L4.87303 4.96411C4.72952 4.91335 4.57395 4.90746 4.42701 4.94724C4.28006 4.98701 4.1487 5.07055 4.05038 5.18677L4.00819 5.23599C3.19794 6.19128 2.56601 7.28444 2.14257 8.46333L2.12147 8.52427C2.016 8.81724 2.10272 9.14536 2.33944 9.34927L3.891 10.6735C3.81835 11.1141 3.78319 11.5641 3.78319 12.0094C3.78319 12.4594 3.81835 12.9094 3.891 13.3454L2.34413 14.6696C2.22834 14.7687 2.14546 14.9007 2.10653 15.0481C2.06759 15.1955 2.07444 15.3512 2.12616 15.4946L2.14725 15.5555C2.57147 16.7344 3.19725 17.8243 4.01288 18.7829L4.05506 18.8321C4.15363 18.948 4.285 19.0313 4.43185 19.071C4.57871 19.1108 4.73416 19.1051 4.87772 19.0547L6.79491 18.3727C7.49335 18.9469 8.27147 19.4016 9.11288 19.7157L9.48319 21.7149C9.51095 21.8648 9.58367 22.0027 9.69167 22.1103C9.79968 22.2179 9.93787 22.2901 10.0879 22.3172L10.1512 22.329C11.3819 22.5505 12.6423 22.5505 13.873 22.329L13.9363 22.3172C14.0863 22.2901 14.2245 22.2179 14.3325 22.1103C14.4405 22.0027 14.5132 21.8648 14.541 21.7149L14.909 19.725C15.7574 19.4063 16.5402 18.954 17.2433 18.3774L19.1465 19.0547C19.29 19.1055 19.4456 19.1114 19.5925 19.0716C19.7394 19.0318 19.8708 18.9483 19.9691 18.8321L20.0113 18.7829C20.8269 17.8196 21.4527 16.7344 21.8769 15.5555L21.898 15.4946C21.9988 15.204 21.9121 14.8782 21.6754 14.6743ZM12.0121 15.8977C9.73631 15.8977 7.89178 14.0532 7.89178 11.7774C7.89178 9.50161 9.73631 7.65708 12.0121 7.65708C14.2879 7.65708 16.1324 9.50161 16.1324 11.7774C16.1324 14.0532 14.2879 15.8977 12.0121 15.8977Z" fill="white"/>
</svg>
